Patient4_TMGait_0pt4_01_left_34_EMG.mot
version=1
nRows=33
nColumns=33
inDegrees=no
endheader
time	1LAddLong	2LGlutMax	3LGlutMed	4LIliopsoas	5LSemiMemb	6LBicFemLong	7LRecFem	8LVastMed	9LVastLat	10LGasMed	11LTibAnt	12lTibPost	13LPeroneusLong	14LSol	15LExtDigLong	16LFlexDigLong	17RAddLong	18RGlutMax	19RGlutMed	20RIliopsoas	21RSemiMemb	22RBicFemLong	23RRecFem	24RVastMed	25RVastLat	26RGasMed	27RTibAnt	28RTibPost	29RPeroneusLong	30RSol	31RExtDigLong	32RFlexDigLong
42.16	0.009613	0.007629	-0.037689	0.012817	0.032959	0.009308	0.015411	0.002747	-0.041504	0.001526	-0.000458	0.007629	-0.022888	0.009918	0.046692	-0.004425	-0.023804	0.34775	0.52994	-0.013428	-0.20966	-0.061493	0.25742	-0.036469	-0.071106	-0.099945	-0.006104	-0.00824	0.077057	0.016785	-0.002136	0.004578
42.161	0.003967	0.038605	-0.014038	0.007629	0.021362	-0.013275	0.037689	0.008087	-0.030975	0.034637	-0.074463	0.001221	-0.045166	0.07309	0.025635	-0.005951	-0.014496	0.29129	0.32288	0.094604	-0.027924	-0.15656	0.27985	-0.010223	-0.092316	-0.12024	0.035248	-0.003967	0.112	-0.037079	-0.001373	0.001831
42.162	0.007019	0.06012	0.005646	-0.005951	0.00473	-0.007019	0.032196	0.00946	-0.01709	0.052948	-0.053558	0.003967	-0.043793	0.14343	-0.032349	0.004883	0.000916	0.3157	0.41382	0.1532	0.11292	-0.18295	0.30991	-0.075836	-0.13062	-0.081177	0.085602	-0.009155	0.015411	-0.12222	-0.000305	0.000153
42.163	0.002899	0.055389	0.007019	-0.007324	0.029602	-0.02243	0.017548	0.018768	0.007324	0.037537	0.055389	0.008545	-0.01709	-0.02121	-0.021362	-0.024109	-0.006561	0.21103	0.29221	0.097656	-0.049438	-0.095978	0.26566	-0.11154	-0.20294	-0.046539	0.12756	-0.013428	-0.13245	-0.44586	0.003204	-0.009003
42.164	0.015869	0.061493	-0.020294	0.011292	0.055237	-0.011292	0.011444	0.014191	0.036926	0.02594	0.17929	0.006714	-0.007782	-0.11231	0.09903	0.01297	-0.001221	0.14694	-0.086823	0.097198	-0.005341	-0.046692	0.021667	-0.16617	-0.1709	-0.091248	0.15289	-0.013885	-0.29511	-0.62958	-0.00061	-0.00946
42.165	0.022125	0.069733	-0.030365	0.013885	0.054626	-0.011139	0.00885	0.010376	0.062103	-0.00946	0.09903	0.006714	0.065765	-0.027771	0.22064	0.01358	-0.016479	0.13412	-0.13519	0.086517	0.024567	-0.057831	-0.1413	0.020599	0.033264	-0.052948	0.15289	-0.022125	-0.27008	-0.52582	-0.001221	-0.015411
42.166	0.000153	0.064087	-0.035248	0.002594	0.040741	-0.018921	0.006104	0.014496	0.072632	-0.034637	-0.088348	0.003662	0.072784	0.1831	0.29236	0.006714	-0.00412	0.20401	-0.32333	0.053253	-0.008087	0.021057	-0.13473	0.11032	0.17288	-0.004578	0.14587	-0.037689	-0.44968	-0.21133	-0.002441	-0.010376
42.167	-0.079498	0.099487	-0.057373	0.003357	0.040894	-0.02655	0.013733	0.015564	0.089111	-0.066833	-0.10071	0.00473	0.007935	0.18646	0.37201	0.012665	0.004883	0.20905	-0.50323	-0.019989	-0.12039	0.074158	-0.2623	-0.052948	0.10422	-0.041351	0.10147	0.039978	-0.33264	0.26718	-0.000458	-0.008392
42.168	-0.10468	0.078278	-0.032654	-0.001831	0.041199	-0.011902	0.001526	0.019226	0.10956	-0.049133	-0.054779	0.001831	-0.026703	0.12955	-0.066986	0.009003	0.024567	0.30441	-0.6366	-0.039825	-0.050812	0.22201	-0.15854	-0.094757	0.10025	-0.026245	0.17014	0.019073	-0.17197	0.88669	0.003967	-0.011444
42.169	-0.00473	0.075378	-0.015564	0.008698	0.045319	-0.020905	0.010223	0.021057	0.13016	-0.021515	-0.07843	0.009918	-0.016174	0.063934	-0.041809	0.008392	0.016022	0.28137	0.59296	-0.082397	0.032806	0.36743	0.011292	-0.010834	0.068665	-0.00946	0.34546	-0.000458	-0.17929	0.73639	0	-0.004425
42.17	-0.017395	0.032501	-0.031738	0.005188	0.050354	-0.022125	0.003662	0.011749	0.12787	0.005798	0.1181	0.001221	-0.019073	-0.13367	-0.35461	0.000153	0.010223	0.15564	0.59601	-0.075531	0.063324	0.18738	0.023346	-0.038147	0.018158	0.078125	0.42816	-0.021667	-0.17044	0.069427	-0.00351	-0.009155
42.171	-0.00824	0.023346	0.035095	0.016479	0.059814	0.007172	0.007782	0.002747	0.12909	0.040894	0.23239	0.006409	-0.015259	-0.20981	-0.41534	-0.00824	0.00885	0.070648	0.60989	-0.050659	0.023041	0.10284	0.11169	-0.058899	0.016327	0.090485	0.32928	0.022278	-0.22034	-0.41168	-0.001068	-0.005188
42.172	0.003662	0.031433	0.054016	-0.015259	0.029755	0.052338	0.003357	0.006561	0.12604	0.028229	0.25848	-0.001373	-0.009766	-0.16724	-0.33417	0.00351	-0.000763	0.089264	0.42282	-0.028687	0.091095	0.04364	0.063934	-0.066223	0.075378	0.085907	-0.22049	-0.017853	-0.041046	-0.43671	-0.000458	-0.007629
42.173	0.013275	0.04303	0.022125	-0.004272	0.026398	0.04303	0.020294	0.012054	0.12451	-0.056	-0.32227	0.023804	0.14679	-0.083771	-0.22995	0.012207	-0.00885	0.058594	0.34546	-0.018005	0.06134	0.051117	0.10727	0.06485	0.12589	0.031433	-0.39703	-0.056305	0.04715	0.39108	0.001526	-0.010681
42.174	0.011444	0.11231	-0.003662	-0.007172	0.040894	0.015411	0.012817	0.006409	0.12894	-0.064545	-0.16327	-0.018158	0.12146	-0.03006	0.14633	0.000305	-0.00885	-0.008087	0.32272	-0.032959	0.063171	0.067139	0.16541	0.029602	0.061035	0.006866	-0.11169	0.001984	0.242	0.59677	0.00061	-0.006714
42.175	0.017548	0.12466	-0.020142	0.013275	0.055084	-0.019226	0.008698	-0.001984	0.13428	-0.028229	-0.057373	-0.002136	0.027466	-0.00946	0.21683	-0.006409	-0.004883	-0.082855	0.23346	-0.090027	0.021973	0.070496	0.17563	0.065918	0.045471	0.009766	0.00061	-0.33508	0.32669	-0.073242	-0.000153	-0.003357
42.176	0.011292	0.10544	-0.030823	0.003052	0.019836	-0.029907	-0.007935	0.000916	0.1384	-0.018921	-0.11581	0.005188	-0.015411	0.012512	-0.068054	-0.007782	0.010834	-0.18585	0.51346	-0.042114	0.070801	0.11307	0.065308	0.001984	0.068512	-0.05127	-0.029602	0.13779	-0.1236	-0.097351	0.001678	-0.003357
42.177	0.007782	0.12955	0.001221	0.014191	0.027008	-0.00885	0.013123	-0.003662	0.1474	-0.012054	-0.016327	0.001526	-0.046844	0.002289	-0.077667	-0.010681	-0.00885	-0.25345	0.13504	0.10071	0.11826	0.14847	-0.24155	-0.11078	-0.050812	-0.050507	-0.042725	0.13657	-0.35492	-0.20004	-0.001526	-0.00473
42.178	0.008698	0.13596	-0.036469	-0.014343	0.005646	0.02655	0.000916	0.001984	0.14374	-0.020142	0.038757	0.002594	-0.018463	-0.003052	0.019226	-0.001831	-0.014496	-0.31952	0.11978	0.13382	0.054474	0.15274	-0.35492	-0.2269	-0.10239	-0.00412	-0.039215	0.056	-0.28442	-0.12741	-0.000305	0.005035
42.179	0.009766	0.16892	-0.003662	-0.018921	-0.007019	0.016937	-0.001373	0.003052	0.14694	-0.023041	-0.060577	0.001984	0.010529	-0.030365	0.084076	0.006866	-0.011139	-0.23346	0.057678	0.13153	-0.11429	0.14206	-0.17899	-0.24597	-0.091858	0.027618	0.18112	0.049286	0.04425	-0.22492	-0.007629	0.00351
42.18	0.011597	0.17349	-0.02243	0.008087	-0.014496	0.007477	0.015411	0.001373	0.15625	-0.037537	-0.003357	0.004272	0.023499	-0.063477	-0.034485	0.005646	-0.000305	-0.20493	-0.084686	0.064697	-0.085907	0.11475	0.39566	0.041046	-0.098572	0.033417	0.19241	0.04364	0.1239	-0.28183	-0.000763	0
42.181	0.009003	0.18478	-0.00412	0.005493	-0.023651	0.026245	0.010529	0.001221	0.14999	-0.045776	-0.010986	0.002594	0.083008	-0.082397	-0.15182	0	-0.013123	-0.18448	0.14328	-0.10056	-0.011139	0.075684	0.19974	0.25482	-0.11414	0.032501	0.075684	0.0177	-0.028687	0.34531	-0.003967	0.002747
42.182	0.006409	0.19974	-0.041962	-0.00061	-0.038757	0.036926	0.021362	-0.005035	0.16541	-0.037079	-0.058746	-0.000916	0.13214	-0.054169	-0.15411	-0.010834	-0.013428	-0.12024	0.30884	-0.15305	0.011902	0.048828	-0.20142	0.15289	-0.068512	0.033264	0.22812	0.001068	-0.066833	0.46753	0.001373	-0.005341
42.183	0.005188	0.22263	-0.032654	-0.000458	-0.041199	0.014954	0.01709	0.007477	0.17716	-0.013123	0.04303	0.002594	0.051117	-0.037231	0.020905	-0.007019	-0.007782	-0.10834	0.23804	-0.039825	0.000458	0.053101	-0.42572	0.049133	-0.020294	0.01236	0.121	0.001831	-0.003204	0.006714	-0.001068	-0.006104
42.184	0.003357	0.2475	-0.031891	0.000153	-0.024261	0.030823	0.001221	-0.002136	0.17838	-0.011444	0.037537	0.003204	-0.007019	0.075073	0.029755	0.011902	-0.007172	-0.074768	0.16495	0.025635	-0.007324	0.0354	-0.32745	0.015717	0.041809	0.005646	0.16815	-0.011749	0.012054	-0.26367	-0.002899	-0.011292
42.185	0.009613	0.28366	-0.007782	0.003967	-0.012054	0.041351	0.02182	0.001221	0.1944	-0.002441	0.072632	0.004425	-0.022888	0.084991	0.028687	0.00824	-0.000763	-0.05722	0.012512	0.029602	-0.008392	0.053406	-0.087433	0.12116	-0.022125	-0.013123	0.37598	-0.11551	-0.04837	-0.023041	-0.000763	-0.016479
42.186	0.005646	0.28336	-0.051727	0.016632	0.041809	0.046234	0.020599	0.000153	0.19043	0.002136	0.000458	-0.000153	-0.018463	0.036469	0.045471	0.007477	-0.002594	-0.10864	-0.086823	0.009918	-0.011749	0.043945	0.040283	0.053101	-0.025482	-0.001221	0.24445	-0.28732	0.46097	-0.14816	-0.000916	-0.014343
42.187	0.008698	0.31464	-0.070038	0.00412	-0.004578	0.027618	0.037689	0	0.19959	-0.003204	-0.017853	0.002289	0.000763	-0.040283	0.06546	0.007629	-0.001678	-0.071106	0.1944	0.020752	-0.014343	0.066223	0.19959	0.020905	-0.059052	0.02121	-0.18509	0.22964	0.672	-0.29877	-0.003052	-0.018768
42.188	0.00412	0.31372	-0.089569	-0.015717	-0.046082	0.006409	0.041351	-0.001068	0.19455	-0.026245	-0.01358	0.006714	0.013275	-0.051575	0.06424	0.013275	0.005798	-0.10147	0.41534	0.024109	-0.004272	0.074615	0.17761	0.047455	-0.059814	0.041656	-0.51971	0.11078	0.28336	-0.24918	-0.002441	-0.002289
42.189	0.007172	0.35141	-0.098877	0.019836	0.02594	0.013733	0.041351	-0.000916	0.18265	-0.043182	-0.024261	0.015564	0.028839	-0.07843	0.090637	0.006866	0.013428	-0.08728	0.046539	0.001068	-0.022736	0.083008	0.15243	0.063629	-0.01709	0.0354	-0.40527	0.018463	0.30456	-0.17502	-0.003967	-0.006104
42.19	0.003357	0.40649	-0.0914	0.00412	-0.018311	0.001526	0.025482	-0.009766	0.17975	-0.058899	-0.008087	0.008087	-0.008545	-0.17303	0.22919	0.002899	0.011139	-0.10727	-0.4393	0.00824	-0.046539	0.089264	0.029602	0.030975	0.007629	0.004425	-0.13611	-0.014343	-0.10437	-0.16068	-0.002594	-0.010681
42.191	0.010834	0.43472	-0.057526	0.010071	-0.014343	0.011749	0.018158	-0.011597	0.16876	-0.037689	-0.006409	0.012512	-0.01709	-0.27466	0.098572	0.006104	0.004578	-0.11215	-0.12497	-0.009766	-0.075226	0.088654	-0.10681	-0.014191	-0.074463	0.037079	-0.014801	-0.18707	-0.38788	-0.23712	-0.002289	-0.016022
42.192	0.011292	0.40466	0.002747	-0.011902	0.007629	-0.006561	0.035553	-0.006561	0.16373	-0.063477	-0.003967	0.001373	0.014648	-0.19653	0.002136	0.005493	0.020294	-0.087433	0.52414	-0.063934	-0.090332	0.10712	-0.082092	-0.083771	-0.12787	0.018616	-0.051575	-0.057526	-0.29892	-0.27588	0.00946	-0.005951
